<svg xmlns="http://www.w3.org/2000/svg" width="32" height="32" fill="currentColor" viewBox="0 0 32 32" id="cloud">
  <path fill="url(#paint0_linear_18_15087)" d="M12.1093 5.08945C13.5087 3.51419 15.4114 3.7649 16.6289 5.08945L17.3714 5.9491C17.6285 6.22881 18.0006 6.37385 18.3791 6.34198L19.6992 5.9491C21.4985 5.56338 23.1335 6.90571 23.1335 8.99061V9.77601C23.1717 10.2048 23.5462 10.4954 23.933 10.6843L25.1256 11.1826C26.8508 12.0251 27.2819 14.0243 26.0252 15.7023L25.6682 16.1735C25.348 16.6064 25.4138 17.1746 25.7325 17.6086L26.0895 18.1085C27.389 19.7078 26.6563 21.9021 24.8207 22.6687L23.794 23.0975C23.4073 23.259 23.2558 23.5362 23.1835 23.949L23.1121 25.2913C22.8622 27.1335 21.2261 27.9655 19.9134 27.7796L18.3497 27.3619C17.9741 27.3088 17.5072 27.4333 17.2573 27.8261L16.6932 28.5972C15.2938 30.1751 13.4049 29.9128 12.452 28.9899L11.4115 27.7297C11.139 27.4658 10.7955 27.2406 10.3844 27.3957L8.81059 27.8261C7.51129 28.01 5.98134 27.0112 5.73646 25.722L5.55473 23.8562C5.48097 23.4679 5.22488 23.1387 4.8666 22.9718L3.76259 22.5924C2.10242 21.8188 1.54636 19.9458 2.49959 18.3818L3.12184 17.5213C3.37178 17.1112 3.3599 16.5931 3.09142 16.1949L2.62732 15.538C1.31357 13.6673 2.22189 11.5764 4.16865 10.9496L4.59801 10.8113C5.07191 10.6587 5.52968 10.2652 5.56906 9.76888L5.66467 8.5641C5.81986 6.60853 7.60432 5.4864 9.48122 6.05698L10.0887 6.24165C10.6741 6.47013 11.1328 6.27555 11.4524 5.92748L12.1093 5.08945Z"></path>
  <path fill="url(#paint1_radial_18_15087)" d="M12.1093 5.08945C13.5087 3.51419 15.4114 3.7649 16.6289 5.08945L17.3714 5.9491C17.6285 6.22881 18.0006 6.37385 18.3791 6.34198L19.6992 5.9491C21.4985 5.56338 23.1335 6.90571 23.1335 8.99061V9.77601C23.1717 10.2048 23.5462 10.4954 23.933 10.6843L25.1256 11.1826C26.8508 12.0251 27.2819 14.0243 26.0252 15.7023L25.6682 16.1735C25.348 16.6064 25.4138 17.1746 25.7325 17.6086L26.0895 18.1085C27.389 19.7078 26.6563 21.9021 24.8207 22.6687L23.794 23.0975C23.4073 23.259 23.2558 23.5362 23.1835 23.949L23.1121 25.2913C22.8622 27.1335 21.2261 27.9655 19.9134 27.7796L18.3497 27.3619C17.9741 27.3088 17.5072 27.4333 17.2573 27.8261L16.6932 28.5972C15.2938 30.1751 13.4049 29.9128 12.452 28.9899L11.4115 27.7297C11.139 27.4658 10.7955 27.2406 10.3844 27.3957L8.81059 27.8261C7.51129 28.01 5.98134 27.0112 5.73646 25.722L5.55473 23.8562C5.48097 23.4679 5.22488 23.1387 4.8666 22.9718L3.76259 22.5924C2.10242 21.8188 1.54636 19.9458 2.49959 18.3818L3.12184 17.5213C3.37178 17.1112 3.3599 16.5931 3.09142 16.1949L2.62732 15.538C1.31357 13.6673 2.22189 11.5764 4.16865 10.9496L4.59801 10.8113C5.07191 10.6587 5.52968 10.2652 5.56906 9.76888L5.66467 8.5641C5.81986 6.60853 7.60432 5.4864 9.48122 6.05698L10.0887 6.24165C10.6741 6.47013 11.1328 6.27555 11.4524 5.92748L12.1093 5.08945Z"></path>
  <path fill="url(#paint2_radial_18_15087)" d="M12.1093 5.08945C13.5087 3.51419 15.4114 3.7649 16.6289 5.08945L17.3714 5.9491C17.6285 6.22881 18.0006 6.37385 18.3791 6.34198L19.6992 5.9491C21.4985 5.56338 23.1335 6.90571 23.1335 8.99061V9.77601C23.1717 10.2048 23.5462 10.4954 23.933 10.6843L25.1256 11.1826C26.8508 12.0251 27.2819 14.0243 26.0252 15.7023L25.6682 16.1735C25.348 16.6064 25.4138 17.1746 25.7325 17.6086L26.0895 18.1085C27.389 19.7078 26.6563 21.9021 24.8207 22.6687L23.794 23.0975C23.4073 23.259 23.2558 23.5362 23.1835 23.949L23.1121 25.2913C22.8622 27.1335 21.2261 27.9655 19.9134 27.7796L18.3497 27.3619C17.9741 27.3088 17.5072 27.4333 17.2573 27.8261L16.6932 28.5972C15.2938 30.1751 13.4049 29.9128 12.452 28.9899L11.4115 27.7297C11.139 27.4658 10.7955 27.2406 10.3844 27.3957L8.81059 27.8261C7.51129 28.01 5.98134 27.0112 5.73646 25.722L5.55473 23.8562C5.48097 23.4679 5.22488 23.1387 4.8666 22.9718L3.76259 22.5924C2.10242 21.8188 1.54636 19.9458 2.49959 18.3818L3.12184 17.5213C3.37178 17.1112 3.3599 16.5931 3.09142 16.1949L2.62732 15.538C1.31357 13.6673 2.22189 11.5764 4.16865 10.9496L4.59801 10.8113C5.07191 10.6587 5.52968 10.2652 5.56906 9.76888L5.66467 8.5641C5.81986 6.60853 7.60432 5.4864 9.48122 6.05698L10.0887 6.24165C10.6741 6.47013 11.1328 6.27555 11.4524 5.92748L12.1093 5.08945Z"></path>
  <path fill="url(#paint3_radial_18_15087)" d="M12.1093 5.08945C13.5087 3.51419 15.4114 3.7649 16.6289 5.08945L17.3714 5.9491C17.6285 6.22881 18.0006 6.37385 18.3791 6.34198L19.6992 5.9491C21.4985 5.56338 23.1335 6.90571 23.1335 8.99061V9.77601C23.1717 10.2048 23.5462 10.4954 23.933 10.6843L25.1256 11.1826C26.8508 12.0251 27.2819 14.0243 26.0252 15.7023L25.6682 16.1735C25.348 16.6064 25.4138 17.1746 25.7325 17.6086L26.0895 18.1085C27.389 19.7078 26.6563 21.9021 24.8207 22.6687L23.794 23.0975C23.4073 23.259 23.2558 23.5362 23.1835 23.949L23.1121 25.2913C22.8622 27.1335 21.2261 27.9655 19.9134 27.7796L18.3497 27.3619C17.9741 27.3088 17.5072 27.4333 17.2573 27.8261L16.6932 28.5972C15.2938 30.1751 13.4049 29.9128 12.452 28.9899L11.4115 27.7297C11.139 27.4658 10.7955 27.2406 10.3844 27.3957L8.81059 27.8261C7.51129 28.01 5.98134 27.0112 5.73646 25.722L5.55473 23.8562C5.48097 23.4679 5.22488 23.1387 4.8666 22.9718L3.76259 22.5924C2.10242 21.8188 1.54636 19.9458 2.49959 18.3818L3.12184 17.5213C3.37178 17.1112 3.3599 16.5931 3.09142 16.1949L2.62732 15.538C1.31357 13.6673 2.22189 11.5764 4.16865 10.9496L4.59801 10.8113C5.07191 10.6587 5.52968 10.2652 5.56906 9.76888L5.66467 8.5641C5.81986 6.60853 7.60432 5.4864 9.48122 6.05698L10.0887 6.24165C10.6741 6.47013 11.1328 6.27555 11.4524 5.92748L12.1093 5.08945Z"></path>
  <path fill="url(#paint4_radial_18_15087)" d="M12.1093 5.08945C13.5087 3.51419 15.4114 3.7649 16.6289 5.08945L17.3714 5.9491C17.6285 6.22881 18.0006 6.37385 18.3791 6.34198L19.6992 5.9491C21.4985 5.56338 23.1335 6.90571 23.1335 8.99061V9.77601C23.1717 10.2048 23.5462 10.4954 23.933 10.6843L25.1256 11.1826C26.8508 12.0251 27.2819 14.0243 26.0252 15.7023L25.6682 16.1735C25.348 16.6064 25.4138 17.1746 25.7325 17.6086L26.0895 18.1085C27.389 19.7078 26.6563 21.9021 24.8207 22.6687L23.794 23.0975C23.4073 23.259 23.2558 23.5362 23.1835 23.949L23.1121 25.2913C22.8622 27.1335 21.2261 27.9655 19.9134 27.7796L18.3497 27.3619C17.9741 27.3088 17.5072 27.4333 17.2573 27.8261L16.6932 28.5972C15.2938 30.1751 13.4049 29.9128 12.452 28.9899L11.4115 27.7297C11.139 27.4658 10.7955 27.2406 10.3844 27.3957L8.81059 27.8261C7.51129 28.01 5.98134 27.0112 5.73646 25.722L5.55473 23.8562C5.48097 23.4679 5.22488 23.1387 4.8666 22.9718L3.76259 22.5924C2.10242 21.8188 1.54636 19.9458 2.49959 18.3818L3.12184 17.5213C3.37178 17.1112 3.3599 16.5931 3.09142 16.1949L2.62732 15.538C1.31357 13.6673 2.22189 11.5764 4.16865 10.9496L4.59801 10.8113C5.07191 10.6587 5.52968 10.2652 5.56906 9.76888L5.66467 8.5641C5.81986 6.60853 7.60432 5.4864 9.48122 6.05698L10.0887 6.24165C10.6741 6.47013 11.1328 6.27555 11.4524 5.92748L12.1093 5.08945Z"></path>
  <path fill="url(#paint5_radial_18_15087)" d="M12.1093 5.08945C13.5087 3.51419 15.4114 3.7649 16.6289 5.08945L17.3714 5.9491C17.6285 6.22881 18.0006 6.37385 18.3791 6.34198L19.6992 5.9491C21.4985 5.56338 23.1335 6.90571 23.1335 8.99061V9.77601C23.1717 10.2048 23.5462 10.4954 23.933 10.6843L25.1256 11.1826C26.8508 12.0251 27.2819 14.0243 26.0252 15.7023L25.6682 16.1735C25.348 16.6064 25.4138 17.1746 25.7325 17.6086L26.0895 18.1085C27.389 19.7078 26.6563 21.9021 24.8207 22.6687L23.794 23.0975C23.4073 23.259 23.2558 23.5362 23.1835 23.949L23.1121 25.2913C22.8622 27.1335 21.2261 27.9655 19.9134 27.7796L18.3497 27.3619C17.9741 27.3088 17.5072 27.4333 17.2573 27.8261L16.6932 28.5972C15.2938 30.1751 13.4049 29.9128 12.452 28.9899L11.4115 27.7297C11.139 27.4658 10.7955 27.2406 10.3844 27.3957L8.81059 27.8261C7.51129 28.01 5.98134 27.0112 5.73646 25.722L5.55473 23.8562C5.48097 23.4679 5.22488 23.1387 4.8666 22.9718L3.76259 22.5924C2.10242 21.8188 1.54636 19.9458 2.49959 18.3818L3.12184 17.5213C3.37178 17.1112 3.3599 16.5931 3.09142 16.1949L2.62732 15.538C1.31357 13.6673 2.22189 11.5764 4.16865 10.9496L4.59801 10.8113C5.07191 10.6587 5.52968 10.2652 5.56906 9.76888L5.66467 8.5641C5.81986 6.60853 7.60432 5.4864 9.48122 6.05698L10.0887 6.24165C10.6741 6.47013 11.1328 6.27555 11.4524 5.92748L12.1093 5.08945Z"></path>
  <path fill="url(#paint6_radial_18_15087)" d="M12.1093 5.08945C13.5087 3.51419 15.4114 3.7649 16.6289 5.08945L17.3714 5.9491C17.6285 6.22881 18.0006 6.37385 18.3791 6.34198L19.6992 5.9491C21.4985 5.56338 23.1335 6.90571 23.1335 8.99061V9.77601C23.1717 10.2048 23.5462 10.4954 23.933 10.6843L25.1256 11.1826C26.8508 12.0251 27.2819 14.0243 26.0252 15.7023L25.6682 16.1735C25.348 16.6064 25.4138 17.1746 25.7325 17.6086L26.0895 18.1085C27.389 19.7078 26.6563 21.9021 24.8207 22.6687L23.794 23.0975C23.4073 23.259 23.2558 23.5362 23.1835 23.949L23.1121 25.2913C22.8622 27.1335 21.2261 27.9655 19.9134 27.7796L18.3497 27.3619C17.9741 27.3088 17.5072 27.4333 17.2573 27.8261L16.6932 28.5972C15.2938 30.1751 13.4049 29.9128 12.452 28.9899L11.4115 27.7297C11.139 27.4658 10.7955 27.2406 10.3844 27.3957L8.81059 27.8261C7.51129 28.01 5.98134 27.0112 5.73646 25.722L5.55473 23.8562C5.48097 23.4679 5.22488 23.1387 4.8666 22.9718L3.76259 22.5924C2.10242 21.8188 1.54636 19.9458 2.49959 18.3818L3.12184 17.5213C3.37178 17.1112 3.3599 16.5931 3.09142 16.1949L2.62732 15.538C1.31357 13.6673 2.22189 11.5764 4.16865 10.9496L4.59801 10.8113C5.07191 10.6587 5.52968 10.2652 5.56906 9.76888L5.66467 8.5641C5.81986 6.60853 7.60432 5.4864 9.48122 6.05698L10.0887 6.24165C10.6741 6.47013 11.1328 6.27555 11.4524 5.92748L12.1093 5.08945Z"></path>
  <path fill="url(#paint7_radial_18_15087)" d="M12.1093 5.08945C13.5087 3.51419 15.4114 3.7649 16.6289 5.08945L17.3714 5.9491C17.6285 6.22881 18.0006 6.37385 18.3791 6.34198L19.6992 5.9491C21.4985 5.56338 23.1335 6.90571 23.1335 8.99061V9.77601C23.1717 10.2048 23.5462 10.4954 23.933 10.6843L25.1256 11.1826C26.8508 12.0251 27.2819 14.0243 26.0252 15.7023L25.6682 16.1735C25.348 16.6064 25.4138 17.1746 25.7325 17.6086L26.0895 18.1085C27.389 19.7078 26.6563 21.9021 24.8207 22.6687L23.794 23.0975C23.4073 23.259 23.2558 23.5362 23.1835 23.949L23.1121 25.2913C22.8622 27.1335 21.2261 27.9655 19.9134 27.7796L18.3497 27.3619C17.9741 27.3088 17.5072 27.4333 17.2573 27.8261L16.6932 28.5972C15.2938 30.1751 13.4049 29.9128 12.452 28.9899L11.4115 27.7297C11.139 27.4658 10.7955 27.2406 10.3844 27.3957L8.81059 27.8261C7.51129 28.01 5.98134 27.0112 5.73646 25.722L5.55473 23.8562C5.48097 23.4679 5.22488 23.1387 4.8666 22.9718L3.76259 22.5924C2.10242 21.8188 1.54636 19.9458 2.49959 18.3818L3.12184 17.5213C3.37178 17.1112 3.3599 16.5931 3.09142 16.1949L2.62732 15.538C1.31357 13.6673 2.22189 11.5764 4.16865 10.9496L4.59801 10.8113C5.07191 10.6587 5.52968 10.2652 5.56906 9.76888L5.66467 8.5641C5.81986 6.60853 7.60432 5.4864 9.48122 6.05698L10.0887 6.24165C10.6741 6.47013 11.1328 6.27555 11.4524 5.92748L12.1093 5.08945Z"></path>
  <path fill="url(#paint8_radial_18_15087)" d="M12.1093 5.08945C13.5087 3.51419 15.4114 3.7649 16.6289 5.08945L17.3714 5.9491C17.6285 6.22881 18.0006 6.37385 18.3791 6.34198L19.6992 5.9491C21.4985 5.56338 23.1335 6.90571 23.1335 8.99061V9.77601C23.1717 10.2048 23.5462 10.4954 23.933 10.6843L25.1256 11.1826C26.8508 12.0251 27.2819 14.0243 26.0252 15.7023L25.6682 16.1735C25.348 16.6064 25.4138 17.1746 25.7325 17.6086L26.0895 18.1085C27.389 19.7078 26.6563 21.9021 24.8207 22.6687L23.794 23.0975C23.4073 23.259 23.2558 23.5362 23.1835 23.949L23.1121 25.2913C22.8622 27.1335 21.2261 27.9655 19.9134 27.7796L18.3497 27.3619C17.9741 27.3088 17.5072 27.4333 17.2573 27.8261L16.6932 28.5972C15.2938 30.1751 13.4049 29.9128 12.452 28.9899L11.4115 27.7297C11.139 27.4658 10.7955 27.2406 10.3844 27.3957L8.81059 27.8261C7.51129 28.01 5.98134 27.0112 5.73646 25.722L5.55473 23.8562C5.48097 23.4679 5.22488 23.1387 4.8666 22.9718L3.76259 22.5924C2.10242 21.8188 1.54636 19.9458 2.49959 18.3818L3.12184 17.5213C3.37178 17.1112 3.3599 16.5931 3.09142 16.1949L2.62732 15.538C1.31357 13.6673 2.22189 11.5764 4.16865 10.9496L4.59801 10.8113C5.07191 10.6587 5.52968 10.2652 5.56906 9.76888L5.66467 8.5641C5.81986 6.60853 7.60432 5.4864 9.48122 6.05698L10.0887 6.24165C10.6741 6.47013 11.1328 6.27555 11.4524 5.92748L12.1093 5.08945Z"></path>
  <path fill="url(#paint9_radial_18_15087)" d="M12.1093 5.08945C13.5087 3.51419 15.4114 3.7649 16.6289 5.08945L17.3714 5.9491C17.6285 6.22881 18.0006 6.37385 18.3791 6.34198L19.6992 5.9491C21.4985 5.56338 23.1335 6.90571 23.1335 8.99061V9.77601C23.1717 10.2048 23.5462 10.4954 23.933 10.6843L25.1256 11.1826C26.8508 12.0251 27.2819 14.0243 26.0252 15.7023L25.6682 16.1735C25.348 16.6064 25.4138 17.1746 25.7325 17.6086L26.0895 18.1085C27.389 19.7078 26.6563 21.9021 24.8207 22.6687L23.794 23.0975C23.4073 23.259 23.2558 23.5362 23.1835 23.949L23.1121 25.2913C22.8622 27.1335 21.2261 27.9655 19.9134 27.7796L18.3497 27.3619C17.9741 27.3088 17.5072 27.4333 17.2573 27.8261L16.6932 28.5972C15.2938 30.1751 13.4049 29.9128 12.452 28.9899L11.4115 27.7297C11.139 27.4658 10.7955 27.2406 10.3844 27.3957L8.81059 27.8261C7.51129 28.01 5.98134 27.0112 5.73646 25.722L5.55473 23.8562C5.48097 23.4679 5.22488 23.1387 4.8666 22.9718L3.76259 22.5924C2.10242 21.8188 1.54636 19.9458 2.49959 18.3818L3.12184 17.5213C3.37178 17.1112 3.3599 16.5931 3.09142 16.1949L2.62732 15.538C1.31357 13.6673 2.22189 11.5764 4.16865 10.9496L4.59801 10.8113C5.07191 10.6587 5.52968 10.2652 5.56906 9.76888L5.66467 8.5641C5.81986 6.60853 7.60432 5.4864 9.48122 6.05698L10.0887 6.24165C10.6741 6.47013 11.1328 6.27555 11.4524 5.92748L12.1093 5.08945Z"></path>
  <g filter="url(#filter0_d_18_15087)">
    <path fill="url(#paint10_radial_18_15087)" d="M14.3793 26.6609C19.8018 26.6609 24.1976 22.2651 24.1976 16.8426C24.1976 11.4201 19.8018 7.02435 14.3793 7.02435C8.95682 7.02435 4.56104 11.4201 4.56104 16.8426C4.56104 22.2651 8.95682 26.6609 14.3793 26.6609Z"></path>
    <path fill="url(#paint11_radial_18_15087)" d="M14.3793 26.6609C19.8018 26.6609 24.1976 22.2651 24.1976 16.8426C24.1976 11.4201 19.8018 7.02435 14.3793 7.02435C8.95682 7.02435 4.56104 11.4201 4.56104 16.8426C4.56104 22.2651 8.95682 26.6609 14.3793 26.6609Z"></path>
    <path fill="url(#paint12_radial_18_15087)" d="M14.3793 26.6609C19.8018 26.6609 24.1976 22.2651 24.1976 16.8426C24.1976 11.4201 19.8018 7.02435 14.3793 7.02435C8.95682 7.02435 4.56104 11.4201 4.56104 16.8426C4.56104 22.2651 8.95682 26.6609 14.3793 26.6609Z"></path>
  </g>
  <path fill="url(#paint13_radial_18_15087)" d="M16.6909 24.8517C18.3648 24.8517 19.7218 23.4947 19.7218 21.8208C19.7218 20.1468 18.3648 18.7898 16.6909 18.7898C15.0169 18.7898 13.6599 20.1468 13.6599 21.8208C13.6599 23.4947 15.0169 24.8517 16.6909 24.8517Z"></path>
  <path fill="url(#paint14_radial_18_15087)" d="M16.6909 24.8517C18.3648 24.8517 19.7218 23.4947 19.7218 21.8208C19.7218 20.1468 18.3648 18.7898 16.6909 18.7898C15.0169 18.7898 13.6599 20.1468 13.6599 21.8208C13.6599 23.4947 15.0169 24.8517 16.6909 24.8517Z"></path>
  <g filter="url(#filter1_i_18_15087)">
    <path fill="#D5D4DA" d="M27.9671 18.7861C25.2985 16.1852 21.0287 16.2303 18.4277 18.8989C17.7547 19.5852 17.2648 20.3779 16.9423 21.2244C16.8814 21.3842 16.6842 21.447 16.54 21.3553C16.3275 21.2202 16.1032 21.1014 15.8718 21.0037C15.2554 20.7181 14.5713 20.5602 13.8497 20.5602C11.166 20.5602 8.99353 22.7327 8.99353 25.4163C8.99353 26.5589 9.39194 27.6114 10.0535 28.4458C10.948 29.6185 12.3537 30.3702 13.9399 30.3702C15.8493 30.3702 21.3369 30.3702 23.4793 30.3702C25.5991 30.3702 27.4709 29.3253 28.6136 27.7241C30.6583 25.048 30.4403 21.1992 27.9671 18.7861Z"></path>
    <path fill="url(#paint15_linear_18_15087)" d="M27.9671 18.7861C25.2985 16.1852 21.0287 16.2303 18.4277 18.8989C17.7547 19.5852 17.2648 20.3779 16.9423 21.2244C16.8814 21.3842 16.6842 21.447 16.54 21.3553C16.3275 21.2202 16.1032 21.1014 15.8718 21.0037C15.2554 20.7181 14.5713 20.5602 13.8497 20.5602C11.166 20.5602 8.99353 22.7327 8.99353 25.4163C8.99353 26.5589 9.39194 27.6114 10.0535 28.4458C10.948 29.6185 12.3537 30.3702 13.9399 30.3702C15.8493 30.3702 21.3369 30.3702 23.4793 30.3702C25.5991 30.3702 27.4709 29.3253 28.6136 27.7241C30.6583 25.048 30.4403 21.1992 27.9671 18.7861Z"></path>
  </g>
  <path fill="url(#paint16_radial_18_15087)" d="M27.9671 18.7861C25.2985 16.1852 21.0287 16.2303 18.4277 18.8989C17.7547 19.5852 17.2648 20.3779 16.9423 21.2244C16.8814 21.3842 16.6842 21.447 16.54 21.3553C16.3275 21.2202 16.1032 21.1014 15.8718 21.0037C15.2554 20.7181 14.5713 20.5602 13.8497 20.5602C11.166 20.5602 8.99353 22.7327 8.99353 25.4163C8.99353 26.5589 9.39194 27.6114 10.0535 28.4458C10.948 29.6185 12.3537 30.3702 13.9399 30.3702C15.8493 30.3702 21.3369 30.3702 23.4793 30.3702C25.5991 30.3702 27.4709 29.3253 28.6136 27.7241C30.6583 25.048 30.4403 21.1992 27.9671 18.7861Z"></path>
  <path fill="url(#paint17_radial_18_15087)" d="M27.9671 18.7861C25.2985 16.1852 21.0287 16.2303 18.4277 18.8989C17.7547 19.5852 17.2648 20.3779 16.9423 21.2244C16.8814 21.3842 16.6842 21.447 16.54 21.3553C16.3275 21.2202 16.1032 21.1014 15.8718 21.0037C15.2554 20.7181 14.5713 20.5602 13.8497 20.5602C11.166 20.5602 8.99353 22.7327 8.99353 25.4163C8.99353 26.5589 9.39194 27.6114 10.0535 28.4458C10.948 29.6185 12.3537 30.3702 13.9399 30.3702C15.8493 30.3702 21.3369 30.3702 23.4793 30.3702C25.5991 30.3702 27.4709 29.3253 28.6136 27.7241C30.6583 25.048 30.4403 21.1992 27.9671 18.7861Z"></path>
  <path fill="url(#paint18_radial_18_15087)" d="M27.9671 18.7861C25.2985 16.1852 21.0287 16.2303 18.4277 18.8989C17.7547 19.5852 17.2648 20.3779 16.9423 21.2244C16.8814 21.3842 16.6842 21.447 16.54 21.3553C16.3275 21.2202 16.1032 21.1014 15.8718 21.0037C15.2554 20.7181 14.5713 20.5602 13.8497 20.5602C11.166 20.5602 8.99353 22.7327 8.99353 25.4163C8.99353 26.5589 9.39194 27.6114 10.0535 28.4458C10.948 29.6185 12.3537 30.3702 13.9399 30.3702C15.8493 30.3702 21.3369 30.3702 23.4793 30.3702C25.5991 30.3702 27.4709 29.3253 28.6136 27.7241C30.6583 25.048 30.4403 21.1992 27.9671 18.7861Z"></path>
  <path fill="url(#paint19_radial_18_15087)" d="M27.9671 18.7861C25.2985 16.1852 21.0287 16.2303 18.4277 18.8989C17.7547 19.5852 17.2648 20.3779 16.9423 21.2244C16.8814 21.3842 16.6842 21.447 16.54 21.3553C16.3275 21.2202 16.1032 21.1014 15.8718 21.0037C15.2554 20.7181 14.5713 20.5602 13.8497 20.5602C11.166 20.5602 8.99353 22.7327 8.99353 25.4163C8.99353 26.5589 9.39194 27.6114 10.0535 28.4458C10.948 29.6185 12.3537 30.3702 13.9399 30.3702C15.8493 30.3702 21.3369 30.3702 23.4793 30.3702C25.5991 30.3702 27.4709 29.3253 28.6136 27.7241C30.6583 25.048 30.4403 21.1992 27.9671 18.7861Z"></path>
  <defs>
    <radialGradient id="paint1_radial_18_15087" cx="0" cy="0" r="1" gradientTransform="matrix(-2.57262 2.30382 -2.03268 -2.26984 16.741 5.187)" gradientUnits="userSpaceOnUse">
      <stop offset=".3" stop-color="#FFA13A"></stop>
      <stop offset="1" stop-color="#FFA13A" stop-opacity="0"></stop>
    </radialGradient>
    <radialGradient id="paint2_radial_18_15087" cx="0" cy="0" r="1" gradientTransform="rotate(67.811 .83 7.818)scale(5.49009 4.84396)" gradientUnits="userSpaceOnUse">
      <stop offset=".3" stop-color="#FF942A"></stop>
      <stop offset="1" stop-color="#FF942A" stop-opacity="0"></stop>
    </radialGradient>
    <radialGradient id="paint3_radial_18_15087" cx="0" cy="0" r="1" gradientTransform="rotate(-164.745 11.868 3.103)scale(2.18897 3.03092)" gradientUnits="userSpaceOnUse">
      <stop offset=".3" stop-color="#FFA13D"></stop>
      <stop offset="1" stop-color="#FFA13D" stop-opacity="0"></stop>
    </radialGradient>
    <radialGradient id="paint4_radial_18_15087" cx="0" cy="0" r="1" gradientTransform="rotate(154.195 12.037 9.286)scale(3.88115 2.86651)" gradientUnits="userSpaceOnUse">
      <stop offset=".3" stop-color="#FFA13D"></stop>
      <stop offset="1" stop-color="#FFA13D" stop-opacity="0"></stop>
    </radialGradient>
    <radialGradient id="paint5_radial_18_15087" cx="0" cy="0" r="1" gradientTransform="matrix(-4.30048 -.49918 .2813 -2.42347 27.761 18.971)" gradientUnits="userSpaceOnUse">
      <stop offset=".3" stop-color="#FFA13D"></stop>
      <stop offset="1" stop-color="#FFA13D" stop-opacity="0"></stop>
    </radialGradient>
    <radialGradient id="paint6_radial_18_15087" cx="0" cy="0" r="1" gradientTransform="rotate(-43.964 41.671 -17.583)scale(3.92708 3.78328)" gradientUnits="userSpaceOnUse">
      <stop stop-color="#E0762A"></stop>
      <stop offset="1" stop-color="#E0762A" stop-opacity="0"></stop>
    </radialGradient>
    <radialGradient id="paint7_radial_18_15087" cx="0" cy="0" r="1" gradientTransform="matrix(-1.84307 -2.38062 2.29345 -1.77559 5.683 23.08)" gradientUnits="userSpaceOnUse">
      <stop stop-color="#E0762A"></stop>
      <stop offset="1" stop-color="#E0762A" stop-opacity="0"></stop>
    </radialGradient>
    <radialGradient id="paint8_radial_18_15087" cx="0" cy="0" r="1" gradientTransform="matrix(2.76459 1.30552 -1.5779 3.3414 1.574 12.905)" gradientUnits="userSpaceOnUse">
      <stop stop-color="#F0851D"></stop>
      <stop offset="1" stop-color="#F0851D" stop-opacity="0"></stop>
    </radialGradient>
    <radialGradient id="paint9_radial_18_15087" cx="0" cy="0" r="1" gradientTransform="matrix(-2.82744 -2.17059 2.04777 -2.66745 19.824 28.362)" gradientUnits="userSpaceOnUse">
      <stop offset=".337" stop-color="#E3745B"></stop>
      <stop offset="1" stop-color="#E3745B" stop-opacity="0"></stop>
    </radialGradient>
    <radialGradient id="paint10_radial_18_15087" cx="0" cy="0" r="1" gradientTransform="rotate(117.739 6.607 11.602)scale(17.5199 21.6353)" gradientUnits="userSpaceOnUse">
      <stop offset=".172" stop-color="#FFD13D"></stop>
      <stop offset="1" stop-color="#DCA21C"></stop>
      <stop offset="1" stop-color="#D89A29"></stop>
    </radialGradient>
    <radialGradient id="paint11_radial_18_15087" cx="0" cy="0" r="1" gradientTransform="matrix(-4.72487 -3.87677 3.27312 -3.98916 10.89 22.496)" gradientUnits="userSpaceOnUse">
      <stop offset=".341" stop-color="#DCA225"></stop>
      <stop offset="1" stop-color="#DCA225" stop-opacity="0"></stop>
    </radialGradient>
    <radialGradient id="paint12_radial_18_15087" cx="0" cy="0" r="1" gradientTransform="rotate(168.299 10.422 8.73)scale(20.9088 17.6531)" gradientUnits="userSpaceOnUse">
      <stop offset=".62" stop-color="#DCA225" stop-opacity="0"></stop>
      <stop offset="1" stop-color="#DCA225"></stop>
    </radialGradient>
    <radialGradient id="paint13_radial_18_15087" cx="0" cy="0" r="1" gradientTransform="rotate(-172.463 9.573 9.762)scale(4.15963)" gradientUnits="userSpaceOnUse">
      <stop offset=".309" stop-color="#E8E8E9"></stop>
      <stop offset="1" stop-color="#D2D2D2"></stop>
    </radialGradient>
    <radialGradient id="paint14_radial_18_15087" cx="0" cy="0" r="1" gradientTransform="matrix(-1.76088 -1.41366 1.29524 -1.61337 17.015 21.564)" gradientUnits="userSpaceOnUse">
      <stop stop-color="#CDCDCE"></stop>
      <stop offset="1" stop-color="#CDCDCE" stop-opacity="0"></stop>
    </radialGradient>
    <radialGradient id="paint16_radial_18_15087" cx="0" cy="0" r="1" gradientTransform="rotate(136.5 9.37 16.145)scale(8.36814 8.97651)" gradientUnits="userSpaceOnUse">
      <stop offset=".179" stop-color="#FCFBFE"></stop>
      <stop offset="1" stop-color="#FCFBFE" stop-opacity="0"></stop>
    </radialGradient>
    <radialGradient id="paint17_radial_18_15087" cx="0" cy="0" r="1" gradientTransform="rotate(144.444 3.048 14.55)scale(5.1338 5.37944)" gradientUnits="userSpaceOnUse">
      <stop stop-color="#FCFBFE"></stop>
      <stop offset="1" stop-color="#FCFBFE" stop-opacity="0"></stop>
    </radialGradient>
    <radialGradient id="paint18_radial_18_15087" cx="0" cy="0" r="1" gradientTransform="matrix(-17.41542 4.1316 -3.25377 -13.71522 26.409 23.218)" gradientUnits="userSpaceOnUse">
      <stop offset=".815" stop-color="#CECCD7" stop-opacity="0"></stop>
      <stop offset="1" stop-color="#CECCD7"></stop>
    </radialGradient>
    <radialGradient id="paint19_radial_18_15087" cx="0" cy="0" r="1" gradientTransform="rotate(-46.79 41.846 2.013)scale(4.8491 6.69189)" gradientUnits="userSpaceOnUse">
      <stop stop-color="#D0C9EE"></stop>
      <stop offset="1" stop-color="#D0C9EE" stop-opacity="0"></stop>
    </radialGradient>
    <linearGradient id="paint0_linear_18_15087" x1="22.005" x2="7.976" y1="8.321" y2="26.22" gradientUnits="userSpaceOnUse">
      <stop stop-color="#FC8B23"></stop>
      <stop offset="1" stop-color="#E67639"></stop>
    </linearGradient>
    <linearGradient id="paint15_linear_18_15087" x1="21.643" x2="21.643" y1="29.644" y2="24.008" gradientUnits="userSpaceOnUse">
      <stop stop-color="#DED7FA"></stop>
      <stop offset="1" stop-color="#DED7FA" stop-opacity="0"></stop>
    </linearGradient>
    <filter id="filter0_d_18_15087" width="20.236" height="20.236" x="3.961" y="7.024" color-interpolation-filters="sRGB" filterUnits="userSpaceOnUse">
      <feFlood flood-opacity="0" result="BackgroundImageFix"></feFlood>
      <feColorMatrix in="SourceAlpha" result="hardAlpha" values="0 0 0 0 0 0 0 0 0 0 0 0 0 0 0 0 0 0 127 0"></feColorMatrix>
      <feOffset dx="-.3" dy=".3"></feOffset>
      <feGaussianBlur stdDeviation=".15"></feGaussianBlur>
      <feComposite in2="hardAlpha" operator="out"></feComposite>
      <feColorMatrix values="0 0 0 0 0.921569 0 0 0 0 0.47451 0 0 0 0 0.133333 0 0 0 1 0"></feColorMatrix>
      <feBlend in2="BackgroundImageFix" result="effect1_dropShadow_18_15087"></feBlend>
      <feBlend in="SourceGraphic" in2="effect1_dropShadow_18_15087" result="shape"></feBlend>
    </filter>
    <filter id="filter1_i_18_15087" width="21.006" height="14.504" x="8.994" y="15.866" color-interpolation-filters="sRGB" filterUnits="userSpaceOnUse">
      <feFlood flood-opacity="0" result="BackgroundImageFix"></feFlood>
      <feBlend in="SourceGraphic" in2="BackgroundImageFix" result="shape"></feBlend>
      <feColorMatrix in="SourceAlpha" result="hardAlpha" values="0 0 0 0 0 0 0 0 0 0 0 0 0 0 0 0 0 0 127 0"></feColorMatrix>
      <feOffset dy="-1"></feOffset>
      <feGaussianBlur stdDeviation="1"></feGaussianBlur>
      <feComposite in2="hardAlpha" k2="-1" k3="1" operator="arithmetic"></feComposite>
      <feColorMatrix values="0 0 0 0 0.815686 0 0 0 0 0.784314 0 0 0 0 0.956863 0 0 0 1 0"></feColorMatrix>
      <feBlend in2="shape" result="effect1_innerShadow_18_15087"></feBlend>
    </filter>
  </defs>
</svg>
