<svg xmlns="http://www.w3.org/2000/svg" width="32" height="32" fill="currentColor" viewBox="0 0 32 32" id="thought">
  <g filter="url(#filter0_ii_7163_6153)">
    <path fill="url(#paint0_radial_7163_6153)" d="M30.0508 14.2855C30.0508 12.3517 28.8556 10.7098 27.1627 10.0098C26.9823 9.93523 26.8702 9.75088 26.8949 9.55718C26.9133 9.41245 26.9261 9.26676 26.9261 9.11471C26.9261 6.54425 24.8263 4.46199 22.2342 4.46199C21.3083 4.46199 20.4601 4.73467 19.7366 5.19804C19.521 5.33616 19.225 5.26822 19.0841 5.05439C18.4209 4.04817 17.2933 3.38599 15.995 3.38599C14.7079 3.38599 13.5756 4.0456 12.9237 5.0418C12.7832 5.25642 12.4873 5.32718 12.2707 5.18975C11.5478 4.731 10.7005 4.45203 9.77586 4.45203C7.18372 4.45203 5.08389 6.53429 5.08389 9.10474C5.08389 9.25505 5.09644 9.40224 5.11452 9.54632C5.13889 9.7405 5.02737 9.92591 4.84669 10.0011C3.14489 10.7092 1.94922 12.3513 1.94922 14.2855C1.94922 16.2193 3.1444 17.8611 4.83725 18.5611C5.0177 18.6358 5.12977 18.8201 5.10511 19.0138C5.08669 19.1585 5.07385 19.3042 5.07385 19.4563C5.07385 22.0267 7.17368 24.109 9.76581 24.109C10.691 24.109 11.5388 23.8367 12.2619 23.3739C12.4781 23.2356 12.7748 23.3042 12.916 23.5185C13.5727 24.5151 14.6976 25.175 15.9849 25.175C17.272 25.175 18.4043 24.5154 19.0562 23.5192C19.1967 23.3046 19.4926 23.2338 19.7092 23.3713C20.4321 23.83 21.2794 24.109 22.204 24.109C24.7962 24.109 26.896 22.0267 26.896 19.4563C26.896 19.3067 26.8836 19.1603 26.8656 19.0169C26.8412 18.8218 26.954 18.6356 27.136 18.5611C28.8467 17.8611 30.0508 16.2193 30.0508 14.2855Z"></path>
    <path fill="url(#paint1_radial_7163_6153)" d="M30.0508 14.2855C30.0508 12.3517 28.8556 10.7098 27.1627 10.0098C26.9823 9.93523 26.8702 9.75088 26.8949 9.55718C26.9133 9.41245 26.9261 9.26676 26.9261 9.11471C26.9261 6.54425 24.8263 4.46199 22.2342 4.46199C21.3083 4.46199 20.4601 4.73467 19.7366 5.19804C19.521 5.33616 19.225 5.26822 19.0841 5.05439C18.4209 4.04817 17.2933 3.38599 15.995 3.38599C14.7079 3.38599 13.5756 4.0456 12.9237 5.0418C12.7832 5.25642 12.4873 5.32718 12.2707 5.18975C11.5478 4.731 10.7005 4.45203 9.77586 4.45203C7.18372 4.45203 5.08389 6.53429 5.08389 9.10474C5.08389 9.25505 5.09644 9.40224 5.11452 9.54632C5.13889 9.7405 5.02737 9.92591 4.84669 10.0011C3.14489 10.7092 1.94922 12.3513 1.94922 14.2855C1.94922 16.2193 3.1444 17.8611 4.83725 18.5611C5.0177 18.6358 5.12977 18.8201 5.10511 19.0138C5.08669 19.1585 5.07385 19.3042 5.07385 19.4563C5.07385 22.0267 7.17368 24.109 9.76581 24.109C10.691 24.109 11.5388 23.8367 12.2619 23.3739C12.4781 23.2356 12.7748 23.3042 12.916 23.5185C13.5727 24.5151 14.6976 25.175 15.9849 25.175C17.272 25.175 18.4043 24.5154 19.0562 23.5192C19.1967 23.3046 19.4926 23.2338 19.7092 23.3713C20.4321 23.83 21.2794 24.109 22.204 24.109C24.7962 24.109 26.896 22.0267 26.896 19.4563C26.896 19.3067 26.8836 19.1603 26.8656 19.0169C26.8412 18.8218 26.954 18.6356 27.136 18.5611C28.8467 17.8611 30.0508 16.2193 30.0508 14.2855Z"></path>
    <path fill="url(#paint2_radial_7163_6153)" d="M30.0508 14.2855C30.0508 12.3517 28.8556 10.7098 27.1627 10.0098C26.9823 9.93523 26.8702 9.75088 26.8949 9.55718C26.9133 9.41245 26.9261 9.26676 26.9261 9.11471C26.9261 6.54425 24.8263 4.46199 22.2342 4.46199C21.3083 4.46199 20.4601 4.73467 19.7366 5.19804C19.521 5.33616 19.225 5.26822 19.0841 5.05439C18.4209 4.04817 17.2933 3.38599 15.995 3.38599C14.7079 3.38599 13.5756 4.0456 12.9237 5.0418C12.7832 5.25642 12.4873 5.32718 12.2707 5.18975C11.5478 4.731 10.7005 4.45203 9.77586 4.45203C7.18372 4.45203 5.08389 6.53429 5.08389 9.10474C5.08389 9.25505 5.09644 9.40224 5.11452 9.54632C5.13889 9.7405 5.02737 9.92591 4.84669 10.0011C3.14489 10.7092 1.94922 12.3513 1.94922 14.2855C1.94922 16.2193 3.1444 17.8611 4.83725 18.5611C5.0177 18.6358 5.12977 18.8201 5.10511 19.0138C5.08669 19.1585 5.07385 19.3042 5.07385 19.4563C5.07385 22.0267 7.17368 24.109 9.76581 24.109C10.691 24.109 11.5388 23.8367 12.2619 23.3739C12.4781 23.2356 12.7748 23.3042 12.916 23.5185C13.5727 24.5151 14.6976 25.175 15.9849 25.175C17.272 25.175 18.4043 24.5154 19.0562 23.5192C19.1967 23.3046 19.4926 23.2338 19.7092 23.3713C20.4321 23.83 21.2794 24.109 22.204 24.109C24.7962 24.109 26.896 22.0267 26.896 19.4563C26.896 19.3067 26.8836 19.1603 26.8656 19.0169C26.8412 18.8218 26.954 18.6356 27.136 18.5611C28.8467 17.8611 30.0508 16.2193 30.0508 14.2855Z"></path>
    <path fill="url(#paint3_linear_7163_6153)" d="M30.0508 14.2855C30.0508 12.3517 28.8556 10.7098 27.1627 10.0098C26.9823 9.93523 26.8702 9.75088 26.8949 9.55718C26.9133 9.41245 26.9261 9.26676 26.9261 9.11471C26.9261 6.54425 24.8263 4.46199 22.2342 4.46199C21.3083 4.46199 20.4601 4.73467 19.7366 5.19804C19.521 5.33616 19.225 5.26822 19.0841 5.05439C18.4209 4.04817 17.2933 3.38599 15.995 3.38599C14.7079 3.38599 13.5756 4.0456 12.9237 5.0418C12.7832 5.25642 12.4873 5.32718 12.2707 5.18975C11.5478 4.731 10.7005 4.45203 9.77586 4.45203C7.18372 4.45203 5.08389 6.53429 5.08389 9.10474C5.08389 9.25505 5.09644 9.40224 5.11452 9.54632C5.13889 9.7405 5.02737 9.92591 4.84669 10.0011C3.14489 10.7092 1.94922 12.3513 1.94922 14.2855C1.94922 16.2193 3.1444 17.8611 4.83725 18.5611C5.0177 18.6358 5.12977 18.8201 5.10511 19.0138C5.08669 19.1585 5.07385 19.3042 5.07385 19.4563C5.07385 22.0267 7.17368 24.109 9.76581 24.109C10.691 24.109 11.5388 23.8367 12.2619 23.3739C12.4781 23.2356 12.7748 23.3042 12.916 23.5185C13.5727 24.5151 14.6976 25.175 15.9849 25.175C17.272 25.175 18.4043 24.5154 19.0562 23.5192C19.1967 23.3046 19.4926 23.2338 19.7092 23.3713C20.4321 23.83 21.2794 24.109 22.204 24.109C24.7962 24.109 26.896 22.0267 26.896 19.4563C26.896 19.3067 26.8836 19.1603 26.8656 19.0169C26.8412 18.8218 26.954 18.6356 27.136 18.5611C28.8467 17.8611 30.0508 16.2193 30.0508 14.2855Z"></path>
    <path fill="url(#paint4_radial_7163_6153)" d="M30.0508 14.2855C30.0508 12.3517 28.8556 10.7098 27.1627 10.0098C26.9823 9.93523 26.8702 9.75088 26.8949 9.55718C26.9133 9.41245 26.9261 9.26676 26.9261 9.11471C26.9261 6.54425 24.8263 4.46199 22.2342 4.46199C21.3083 4.46199 20.4601 4.73467 19.7366 5.19804C19.521 5.33616 19.225 5.26822 19.0841 5.05439C18.4209 4.04817 17.2933 3.38599 15.995 3.38599C14.7079 3.38599 13.5756 4.0456 12.9237 5.0418C12.7832 5.25642 12.4873 5.32718 12.2707 5.18975C11.5478 4.731 10.7005 4.45203 9.77586 4.45203C7.18372 4.45203 5.08389 6.53429 5.08389 9.10474C5.08389 9.25505 5.09644 9.40224 5.11452 9.54632C5.13889 9.7405 5.02737 9.92591 4.84669 10.0011C3.14489 10.7092 1.94922 12.3513 1.94922 14.2855C1.94922 16.2193 3.1444 17.8611 4.83725 18.5611C5.0177 18.6358 5.12977 18.8201 5.10511 19.0138C5.08669 19.1585 5.07385 19.3042 5.07385 19.4563C5.07385 22.0267 7.17368 24.109 9.76581 24.109C10.691 24.109 11.5388 23.8367 12.2619 23.3739C12.4781 23.2356 12.7748 23.3042 12.916 23.5185C13.5727 24.5151 14.6976 25.175 15.9849 25.175C17.272 25.175 18.4043 24.5154 19.0562 23.5192C19.1967 23.3046 19.4926 23.2338 19.7092 23.3713C20.4321 23.83 21.2794 24.109 22.204 24.109C24.7962 24.109 26.896 22.0267 26.896 19.4563C26.896 19.3067 26.8836 19.1603 26.8656 19.0169C26.8412 18.8218 26.954 18.6356 27.136 18.5611C28.8467 17.8611 30.0508 16.2193 30.0508 14.2855Z"></path>
  </g>
  <g filter="url(#filter1_i_7163_6153)">
    <path fill="url(#paint5_radial_7163_6153)" d="M4.69907 29.3C6.18765 29.3 7.39438 28.0933 7.39438 26.6047C7.39438 25.1162 6.18765 23.9094 4.69907 23.9094C3.21049 23.9094 2.00375 25.1162 2.00375 26.6047C2.00375 28.0933 3.21049 29.3 4.69907 29.3Z"></path>
    <path fill="url(#paint6_radial_7163_6153)" d="M4.69907 29.3C6.18765 29.3 7.39438 28.0933 7.39438 26.6047C7.39438 25.1162 6.18765 23.9094 4.69907 23.9094C3.21049 23.9094 2.00375 25.1162 2.00375 26.6047C2.00375 28.0933 3.21049 29.3 4.69907 29.3Z"></path>
    <path fill="url(#paint7_radial_7163_6153)" d="M4.69907 29.3C6.18765 29.3 7.39438 28.0933 7.39438 26.6047C7.39438 25.1162 6.18765 23.9094 4.69907 23.9094C3.21049 23.9094 2.00375 25.1162 2.00375 26.6047C2.00375 28.0933 3.21049 29.3 4.69907 29.3Z"></path>
    <path fill="url(#paint8_linear_7163_6153)" d="M4.69907 29.3C6.18765 29.3 7.39438 28.0933 7.39438 26.6047C7.39438 25.1162 6.18765 23.9094 4.69907 23.9094C3.21049 23.9094 2.00375 25.1162 2.00375 26.6047C2.00375 28.0933 3.21049 29.3 4.69907 29.3Z"></path>
    <path fill="url(#paint9_radial_7163_6153)" d="M4.69907 29.3C6.18765 29.3 7.39438 28.0933 7.39438 26.6047C7.39438 25.1162 6.18765 23.9094 4.69907 23.9094C3.21049 23.9094 2.00375 25.1162 2.00375 26.6047C2.00375 28.0933 3.21049 29.3 4.69907 29.3Z"></path>
  </g>
  <g filter="url(#filter2_f_7163_6153)">
    <path fill="url(#paint10_linear_7163_6153)" fill-opacity=".6" d="M8.56381 12.4088L5.74737 8.61255L5.5 10.05L4.31693 10.5575L8.56381 12.4088Z"></path>
  </g>
  <g filter="url(#filter3_f_7163_6153)">
    <path fill="url(#paint11_linear_7163_6153)" d="M24.2163 6.33765C26.2118 7.10675 26.2603 9.20445 26.0351 10.1572L22.9691 11.5083L24.2163 6.33765Z"></path>
  </g>
  <g filter="url(#filter4_f_7163_6153)">
    <path fill="url(#paint12_linear_7163_6153)" d="M25.5428 17.8486C26.8925 19.589 25.6755 21.8114 24.8658 22.2913L20.8385 16.0813L25.5428 17.8486Z"></path>
  </g>
  <g filter="url(#filter5_f_7163_6153)">
    <path fill="#FAFAFC" fill-opacity=".25" d="M12.4199 6.18177C13.5008 7.30425 13.4104 9.1785 13.2371 9.87138L8.76804 5.55818C9.5358 5.24638 11.339 5.0593 12.4199 6.18177Z"></path>
  </g>
  <g filter="url(#filter6_f_7163_6153)">
    <path fill="#E6E4EC" fill-opacity=".5" d="M18.448 9.63738L19.2795 5.88282C21.1373 4.90845 22.1376 5.02538 22.5404 5.02538L18.448 9.63738Z"></path>
  </g>
  <defs>
    <radialGradient id="paint0_radial_7163_6153" cx="0" cy="0" r="1" gradientTransform="rotate(102.766 7.42 11.82)scale(15.7366 29.5915)" gradientUnits="userSpaceOnUse">
      <stop stop-color="#fff"></stop>
      <stop offset="1" stop-color="#E4DBF7"></stop>
    </radialGradient>
    <radialGradient id="paint1_radial_7163_6153" cx="0" cy="0" r="1" gradientTransform="rotate(-165.279 11.986 10.572)scale(24.1589 44.5976)" gradientUnits="userSpaceOnUse">
      <stop offset=".523" stop-color="#CECECE" stop-opacity="0"></stop>
      <stop offset="1" stop-color="#CECECE"></stop>
    </radialGradient>
    <radialGradient id="paint2_radial_7163_6153" cx="0" cy="0" r="1" gradientTransform="rotate(-131.228 16.04 7.13)scale(24.1824 19.799)" gradientUnits="userSpaceOnUse">
      <stop offset=".753" stop-color="#CECECE" stop-opacity="0"></stop>
      <stop offset="1" stop-color="#CECECE"></stop>
    </radialGradient>
    <radialGradient id="paint4_radial_7163_6153" cx="0" cy="0" r="1" gradientTransform="matrix(-13.72655 26.32694 -60.81908 -31.71034 18.757 10.68)" gradientUnits="userSpaceOnUse">
      <stop offset=".278" stop-color="#B6A8F2" stop-opacity="0"></stop>
      <stop offset="1" stop-color="#B6A8F2"></stop>
    </radialGradient>
    <radialGradient id="paint5_radial_7163_6153" cx="0" cy="0" r="1" gradientTransform="rotate(124.829 -2.855 14.472)scale(4.34661 6.46334)" gradientUnits="userSpaceOnUse">
      <stop stop-color="#fff"></stop>
      <stop offset="1" stop-color="#E0D8F0"></stop>
    </radialGradient>
    <radialGradient id="paint6_radial_7163_6153" cx="0" cy="0" r="1" gradientTransform="rotate(-161.281 5.206 14.02)scale(4.73252 10.8045)" gradientUnits="userSpaceOnUse">
      <stop offset=".523" stop-color="#CECECE" stop-opacity="0"></stop>
      <stop offset="1" stop-color="#CECECE"></stop>
    </radialGradient>
    <radialGradient id="paint7_radial_7163_6153" cx="0" cy="0" r="1" gradientTransform="rotate(-128.192 9.809 13.292)scale(6.75541 7.42932)" gradientUnits="userSpaceOnUse">
      <stop offset=".619" stop-color="#CECECE" stop-opacity="0"></stop>
      <stop offset="1" stop-color="#CECECE"></stop>
    </radialGradient>
    <radialGradient id="paint9_radial_7163_6153" cx="0" cy="0" r="1" gradientTransform="matrix(-2.63313 6.5133 -12.75391 -5.15602 5.228 25.714)" gradientUnits="userSpaceOnUse">
      <stop offset=".278" stop-color="#B6A8F2" stop-opacity="0"></stop>
      <stop offset="1" stop-color="#B6A8F2"></stop>
    </radialGradient>
    <filter id="filter0_ii_7163_6153" width="28.201" height="22.189" x="1.949" y="3.086" color-interpolation-filters="sRGB" filterUnits="userSpaceOnUse">
      <feFlood flood-opacity="0" result="BackgroundImageFix"></feFlood>
      <feBlend in="SourceGraphic" in2="BackgroundImageFix" result="shape"></feBlend>
      <feColorMatrix in="SourceAlpha" result="hardAlpha" values="0 0 0 0 0 0 0 0 0 0 0 0 0 0 0 0 0 0 127 0"></feColorMatrix>
      <feOffset dx=".1" dy=".1"></feOffset>
      <feGaussianBlur stdDeviation=".5"></feGaussianBlur>
      <feComposite in2="hardAlpha" k2="-1" k3="1" operator="arithmetic"></feComposite>
      <feColorMatrix values="0 0 0 0 0.716667 0 0 0 0 0.716667 0 0 0 0 0.716667 0 0 0 1 0"></feColorMatrix>
      <feBlend in2="shape" result="effect1_innerShadow_7163_6153"></feBlend>
      <feColorMatrix in="SourceAlpha" result="hardAlpha" values="0 0 0 0 0 0 0 0 0 0 0 0 0 0 0 0 0 0 127 0"></feColorMatrix>
      <feOffset dy="-.3"></feOffset>
      <feGaussianBlur stdDeviation=".25"></feGaussianBlur>
      <feComposite in2="hardAlpha" k2="-1" k3="1" operator="arithmetic"></feComposite>
      <feColorMatrix values="0 0 0 0 0.764633 0 0 0 0 0.670625 0 0 0 0 0.925 0 0 0 1 0"></feColorMatrix>
      <feBlend in2="effect1_innerShadow_7163_6153" result="effect2_innerShadow_7163_6153"></feBlend>
    </filter>
    <filter id="filter1_i_7163_6153" width="5.491" height="5.491" x="2.004" y="23.909" color-interpolation-filters="sRGB" filterUnits="userSpaceOnUse">
      <feFlood flood-opacity="0" result="BackgroundImageFix"></feFlood>
      <feBlend in="SourceGraphic" in2="BackgroundImageFix" result="shape"></feBlend>
      <feColorMatrix in="SourceAlpha" result="hardAlpha" values="0 0 0 0 0 0 0 0 0 0 0 0 0 0 0 0 0 0 127 0"></feColorMatrix>
      <feOffset dx=".1" dy=".1"></feOffset>
      <feGaussianBlur stdDeviation=".5"></feGaussianBlur>
      <feComposite in2="hardAlpha" k2="-1" k3="1" operator="arithmetic"></feComposite>
      <feColorMatrix values="0 0 0 0 0.758333 0 0 0 0 0.758333 0 0 0 0 0.758333 0 0 0 1 0"></feColorMatrix>
      <feBlend in2="shape" result="effect1_innerShadow_7163_6153"></feBlend>
    </filter>
    <filter id="filter2_f_7163_6153" width="5.447" height="4.996" x="3.717" y="8.013" color-interpolation-filters="sRGB" filterUnits="userSpaceOnUse">
      <feFlood flood-opacity="0" result="BackgroundImageFix"></feFlood>
      <feBlend in="SourceGraphic" in2="BackgroundImageFix" result="shape"></feBlend>
      <feGaussianBlur result="effect1_foregroundBlur_7163_6153" stdDeviation=".3"></feGaussianBlur>
    </filter>
    <filter id="filter3_f_7163_6153" width="5.158" height="7.171" x="21.969" y="5.338" color-interpolation-filters="sRGB" filterUnits="userSpaceOnUse">
      <feFlood flood-opacity="0" result="BackgroundImageFix"></feFlood>
      <feBlend in="SourceGraphic" in2="BackgroundImageFix" result="shape"></feBlend>
      <feGaussianBlur result="effect1_foregroundBlur_7163_6153" stdDeviation=".5"></feGaussianBlur>
    </filter>
    <filter id="filter4_f_7163_6153" width="9.309" height="10.21" x="18.838" y="14.081" color-interpolation-filters="sRGB" filterUnits="userSpaceOnUse">
      <feFlood flood-opacity="0" result="BackgroundImageFix"></feFlood>
      <feBlend in="SourceGraphic" in2="BackgroundImageFix" result="shape"></feBlend>
      <feGaussianBlur result="effect1_foregroundBlur_7163_6153" stdDeviation="1"></feGaussianBlur>
    </filter>
    <filter id="filter5_f_7163_6153" width="6.574" height="6.552" x="7.768" y="4.319" color-interpolation-filters="sRGB" filterUnits="userSpaceOnUse">
      <feFlood flood-opacity="0" result="BackgroundImageFix"></feFlood>
      <feBlend in="SourceGraphic" in2="BackgroundImageFix" result="shape"></feBlend>
      <feGaussianBlur result="effect1_foregroundBlur_7163_6153" stdDeviation=".5"></feGaussianBlur>
    </filter>
    <filter id="filter6_f_7163_6153" width="6.092" height="6.616" x="17.448" y="4.021" color-interpolation-filters="sRGB" filterUnits="userSpaceOnUse">
      <feFlood flood-opacity="0" result="BackgroundImageFix"></feFlood>
      <feBlend in="SourceGraphic" in2="BackgroundImageFix" result="shape"></feBlend>
      <feGaussianBlur result="effect1_foregroundBlur_7163_6153" stdDeviation=".5"></feGaussianBlur>
    </filter>
    <linearGradient id="paint3_linear_7163_6153" x1="8.691" x2="1.451" y1="13.69" y2="24.462" gradientUnits="userSpaceOnUse">
      <stop offset=".439" stop-color="#B6A8F2" stop-opacity="0"></stop>
      <stop offset=".966" stop-color="#B6A8F2"></stop>
    </linearGradient>
    <linearGradient id="paint8_linear_7163_6153" x1="3.297" x2="1.382" y1="26.459" y2="28.668" gradientUnits="userSpaceOnUse">
      <stop offset=".439" stop-color="#B6A8F2" stop-opacity="0"></stop>
      <stop offset=".966" stop-color="#B6A8F2"></stop>
    </linearGradient>
    <linearGradient id="paint10_linear_7163_6153" x1="8.768" x2="8.396" y1="12.55" y2="9.544" gradientUnits="userSpaceOnUse">
      <stop offset=".516" stop-color="#CEC7D4" stop-opacity="0"></stop>
      <stop offset="1" stop-color="#CEC7D5"></stop>
    </linearGradient>
    <linearGradient id="paint11_linear_7163_6153" x1="25.905" x2="21.722" y1="10.781" y2="8.78" gradientUnits="userSpaceOnUse">
      <stop stop-color="#fff"></stop>
      <stop offset="1" stop-color="#fff" stop-opacity="0"></stop>
    </linearGradient>
    <linearGradient id="paint12_linear_7163_6153" x1="25.853" x2="22.839" y1="22.333" y2="16.89" gradientUnits="userSpaceOnUse">
      <stop stop-color="#fff" stop-opacity=".6"></stop>
      <stop offset="1" stop-color="#fff" stop-opacity="0"></stop>
    </linearGradient>
  </defs>
</svg>
