<svg xmlns="http://www.w3.org/2000/svg" width="32" height="32" fill="currentColor" viewBox="0 0 32 32" id="sunny">
  <g filter="url(#filter0_i_18_14692)">
    <path fill="url(#paint0_linear_18_14692)" d="M13.0506 3.33085C14.5818 1.60723 16.6637 1.88156 17.9959 3.33085L18.8083 4.27146C19.0896 4.57751 19.4967 4.73622 19.9109 4.70134L21.3553 4.27146C23.324 3.84942 25.1131 5.31817 25.1131 7.59942V8.45879C25.1548 8.92792 25.5646 9.24593 25.9878 9.45261L27.2928 9.99786C29.1804 10.9198 29.6521 13.1072 28.2771 14.9432L27.8865 15.4588C27.5361 15.9325 27.6081 16.5542 27.9568 17.0291L28.3474 17.576C29.7693 19.326 28.9676 21.7269 26.9592 22.5657L25.8358 23.0349C25.4127 23.2116 25.2469 23.515 25.1678 23.9666L25.0896 25.4354C24.8162 27.451 23.026 28.3614 21.5896 28.158L19.8787 27.701C19.4678 27.6428 18.9568 27.7791 18.6834 28.2088L18.0662 29.0526C16.5349 30.7791 14.4682 30.492 13.4256 29.4822L12.287 28.1033C11.9889 27.8146 11.6131 27.5682 11.1632 27.7379L9.4412 28.2088C8.01952 28.4101 6.34548 27.3172 6.07754 25.9066L5.8787 23.8651C5.79799 23.4401 5.51778 23.08 5.12576 22.8973L3.91777 22.4822C2.10124 21.6357 1.49282 19.5864 2.53583 17.8751L3.21668 16.9335C3.49015 16.4848 3.47715 15.9179 3.18339 15.4822L2.67558 14.7635C1.23811 12.7166 2.23197 10.4288 4.36208 9.74289L4.83188 9.59161C5.35041 9.42465 5.85128 8.99403 5.89438 8.45099L5.99899 7.13274C6.1688 4.993 8.12132 3.76518 10.175 4.38951L10.8396 4.59156C11.4803 4.84156 11.9822 4.62866 12.3318 4.24781L13.0506 3.33085Z"></path>
    <path fill="url(#paint1_radial_18_14692)" d="M13.0506 3.33085C14.5818 1.60723 16.6637 1.88156 17.9959 3.33085L18.8083 4.27146C19.0896 4.57751 19.4967 4.73622 19.9109 4.70134L21.3553 4.27146C23.324 3.84942 25.1131 5.31817 25.1131 7.59942V8.45879C25.1548 8.92792 25.5646 9.24593 25.9878 9.45261L27.2928 9.99786C29.1804 10.9198 29.6521 13.1072 28.2771 14.9432L27.8865 15.4588C27.5361 15.9325 27.6081 16.5542 27.9568 17.0291L28.3474 17.576C29.7693 19.326 28.9676 21.7269 26.9592 22.5657L25.8358 23.0349C25.4127 23.2116 25.2469 23.515 25.1678 23.9666L25.0896 25.4354C24.8162 27.451 23.026 28.3614 21.5896 28.158L19.8787 27.701C19.4678 27.6428 18.9568 27.7791 18.6834 28.2088L18.0662 29.0526C16.5349 30.7791 14.4682 30.492 13.4256 29.4822L12.287 28.1033C11.9889 27.8146 11.6131 27.5682 11.1632 27.7379L9.4412 28.2088C8.01952 28.4101 6.34548 27.3172 6.07754 25.9066L5.8787 23.8651C5.79799 23.4401 5.51778 23.08 5.12576 22.8973L3.91777 22.4822C2.10124 21.6357 1.49282 19.5864 2.53583 17.8751L3.21668 16.9335C3.49015 16.4848 3.47715 15.9179 3.18339 15.4822L2.67558 14.7635C1.23811 12.7166 2.23197 10.4288 4.36208 9.74289L4.83188 9.59161C5.35041 9.42465 5.85128 8.99403 5.89438 8.45099L5.99899 7.13274C6.1688 4.993 8.12132 3.76518 10.175 4.38951L10.8396 4.59156C11.4803 4.84156 11.9822 4.62866 12.3318 4.24781L13.0506 3.33085Z"></path>
    <path fill="url(#paint2_radial_18_14692)" d="M13.0506 3.33085C14.5818 1.60723 16.6637 1.88156 17.9959 3.33085L18.8083 4.27146C19.0896 4.57751 19.4967 4.73622 19.9109 4.70134L21.3553 4.27146C23.324 3.84942 25.1131 5.31817 25.1131 7.59942V8.45879C25.1548 8.92792 25.5646 9.24593 25.9878 9.45261L27.2928 9.99786C29.1804 10.9198 29.6521 13.1072 28.2771 14.9432L27.8865 15.4588C27.5361 15.9325 27.6081 16.5542 27.9568 17.0291L28.3474 17.576C29.7693 19.326 28.9676 21.7269 26.9592 22.5657L25.8358 23.0349C25.4127 23.2116 25.2469 23.515 25.1678 23.9666L25.0896 25.4354C24.8162 27.451 23.026 28.3614 21.5896 28.158L19.8787 27.701C19.4678 27.6428 18.9568 27.7791 18.6834 28.2088L18.0662 29.0526C16.5349 30.7791 14.4682 30.492 13.4256 29.4822L12.287 28.1033C11.9889 27.8146 11.6131 27.5682 11.1632 27.7379L9.4412 28.2088C8.01952 28.4101 6.34548 27.3172 6.07754 25.9066L5.8787 23.8651C5.79799 23.4401 5.51778 23.08 5.12576 22.8973L3.91777 22.4822C2.10124 21.6357 1.49282 19.5864 2.53583 17.8751L3.21668 16.9335C3.49015 16.4848 3.47715 15.9179 3.18339 15.4822L2.67558 14.7635C1.23811 12.7166 2.23197 10.4288 4.36208 9.74289L4.83188 9.59161C5.35041 9.42465 5.85128 8.99403 5.89438 8.45099L5.99899 7.13274C6.1688 4.993 8.12132 3.76518 10.175 4.38951L10.8396 4.59156C11.4803 4.84156 11.9822 4.62866 12.3318 4.24781L13.0506 3.33085Z"></path>
    <path fill="url(#paint3_radial_18_14692)" d="M13.0506 3.33085C14.5818 1.60723 16.6637 1.88156 17.9959 3.33085L18.8083 4.27146C19.0896 4.57751 19.4967 4.73622 19.9109 4.70134L21.3553 4.27146C23.324 3.84942 25.1131 5.31817 25.1131 7.59942V8.45879C25.1548 8.92792 25.5646 9.24593 25.9878 9.45261L27.2928 9.99786C29.1804 10.9198 29.6521 13.1072 28.2771 14.9432L27.8865 15.4588C27.5361 15.9325 27.6081 16.5542 27.9568 17.0291L28.3474 17.576C29.7693 19.326 28.9676 21.7269 26.9592 22.5657L25.8358 23.0349C25.4127 23.2116 25.2469 23.515 25.1678 23.9666L25.0896 25.4354C24.8162 27.451 23.026 28.3614 21.5896 28.158L19.8787 27.701C19.4678 27.6428 18.9568 27.7791 18.6834 28.2088L18.0662 29.0526C16.5349 30.7791 14.4682 30.492 13.4256 29.4822L12.287 28.1033C11.9889 27.8146 11.6131 27.5682 11.1632 27.7379L9.4412 28.2088C8.01952 28.4101 6.34548 27.3172 6.07754 25.9066L5.8787 23.8651C5.79799 23.4401 5.51778 23.08 5.12576 22.8973L3.91777 22.4822C2.10124 21.6357 1.49282 19.5864 2.53583 17.8751L3.21668 16.9335C3.49015 16.4848 3.47715 15.9179 3.18339 15.4822L2.67558 14.7635C1.23811 12.7166 2.23197 10.4288 4.36208 9.74289L4.83188 9.59161C5.35041 9.42465 5.85128 8.99403 5.89438 8.45099L5.99899 7.13274C6.1688 4.993 8.12132 3.76518 10.175 4.38951L10.8396 4.59156C11.4803 4.84156 11.9822 4.62866 12.3318 4.24781L13.0506 3.33085Z"></path>
    <path fill="url(#paint4_radial_18_14692)" d="M13.0506 3.33085C14.5818 1.60723 16.6637 1.88156 17.9959 3.33085L18.8083 4.27146C19.0896 4.57751 19.4967 4.73622 19.9109 4.70134L21.3553 4.27146C23.324 3.84942 25.1131 5.31817 25.1131 7.59942V8.45879C25.1548 8.92792 25.5646 9.24593 25.9878 9.45261L27.2928 9.99786C29.1804 10.9198 29.6521 13.1072 28.2771 14.9432L27.8865 15.4588C27.5361 15.9325 27.6081 16.5542 27.9568 17.0291L28.3474 17.576C29.7693 19.326 28.9676 21.7269 26.9592 22.5657L25.8358 23.0349C25.4127 23.2116 25.2469 23.515 25.1678 23.9666L25.0896 25.4354C24.8162 27.451 23.026 28.3614 21.5896 28.158L19.8787 27.701C19.4678 27.6428 18.9568 27.7791 18.6834 28.2088L18.0662 29.0526C16.5349 30.7791 14.4682 30.492 13.4256 29.4822L12.287 28.1033C11.9889 27.8146 11.6131 27.5682 11.1632 27.7379L9.4412 28.2088C8.01952 28.4101 6.34548 27.3172 6.07754 25.9066L5.8787 23.8651C5.79799 23.4401 5.51778 23.08 5.12576 22.8973L3.91777 22.4822C2.10124 21.6357 1.49282 19.5864 2.53583 17.8751L3.21668 16.9335C3.49015 16.4848 3.47715 15.9179 3.18339 15.4822L2.67558 14.7635C1.23811 12.7166 2.23197 10.4288 4.36208 9.74289L4.83188 9.59161C5.35041 9.42465 5.85128 8.99403 5.89438 8.45099L5.99899 7.13274C6.1688 4.993 8.12132 3.76518 10.175 4.38951L10.8396 4.59156C11.4803 4.84156 11.9822 4.62866 12.3318 4.24781L13.0506 3.33085Z"></path>
    <path fill="url(#paint5_radial_18_14692)" d="M13.0506 3.33085C14.5818 1.60723 16.6637 1.88156 17.9959 3.33085L18.8083 4.27146C19.0896 4.57751 19.4967 4.73622 19.9109 4.70134L21.3553 4.27146C23.324 3.84942 25.1131 5.31817 25.1131 7.59942V8.45879C25.1548 8.92792 25.5646 9.24593 25.9878 9.45261L27.2928 9.99786C29.1804 10.9198 29.6521 13.1072 28.2771 14.9432L27.8865 15.4588C27.5361 15.9325 27.6081 16.5542 27.9568 17.0291L28.3474 17.576C29.7693 19.326 28.9676 21.7269 26.9592 22.5657L25.8358 23.0349C25.4127 23.2116 25.2469 23.515 25.1678 23.9666L25.0896 25.4354C24.8162 27.451 23.026 28.3614 21.5896 28.158L19.8787 27.701C19.4678 27.6428 18.9568 27.7791 18.6834 28.2088L18.0662 29.0526C16.5349 30.7791 14.4682 30.492 13.4256 29.4822L12.287 28.1033C11.9889 27.8146 11.6131 27.5682 11.1632 27.7379L9.4412 28.2088C8.01952 28.4101 6.34548 27.3172 6.07754 25.9066L5.8787 23.8651C5.79799 23.4401 5.51778 23.08 5.12576 22.8973L3.91777 22.4822C2.10124 21.6357 1.49282 19.5864 2.53583 17.8751L3.21668 16.9335C3.49015 16.4848 3.47715 15.9179 3.18339 15.4822L2.67558 14.7635C1.23811 12.7166 2.23197 10.4288 4.36208 9.74289L4.83188 9.59161C5.35041 9.42465 5.85128 8.99403 5.89438 8.45099L5.99899 7.13274C6.1688 4.993 8.12132 3.76518 10.175 4.38951L10.8396 4.59156C11.4803 4.84156 11.9822 4.62866 12.3318 4.24781L13.0506 3.33085Z"></path>
    <path fill="url(#paint6_radial_18_14692)" d="M13.0506 3.33085C14.5818 1.60723 16.6637 1.88156 17.9959 3.33085L18.8083 4.27146C19.0896 4.57751 19.4967 4.73622 19.9109 4.70134L21.3553 4.27146C23.324 3.84942 25.1131 5.31817 25.1131 7.59942V8.45879C25.1548 8.92792 25.5646 9.24593 25.9878 9.45261L27.2928 9.99786C29.1804 10.9198 29.6521 13.1072 28.2771 14.9432L27.8865 15.4588C27.5361 15.9325 27.6081 16.5542 27.9568 17.0291L28.3474 17.576C29.7693 19.326 28.9676 21.7269 26.9592 22.5657L25.8358 23.0349C25.4127 23.2116 25.2469 23.515 25.1678 23.9666L25.0896 25.4354C24.8162 27.451 23.026 28.3614 21.5896 28.158L19.8787 27.701C19.4678 27.6428 18.9568 27.7791 18.6834 28.2088L18.0662 29.0526C16.5349 30.7791 14.4682 30.492 13.4256 29.4822L12.287 28.1033C11.9889 27.8146 11.6131 27.5682 11.1632 27.7379L9.4412 28.2088C8.01952 28.4101 6.34548 27.3172 6.07754 25.9066L5.8787 23.8651C5.79799 23.4401 5.51778 23.08 5.12576 22.8973L3.91777 22.4822C2.10124 21.6357 1.49282 19.5864 2.53583 17.8751L3.21668 16.9335C3.49015 16.4848 3.47715 15.9179 3.18339 15.4822L2.67558 14.7635C1.23811 12.7166 2.23197 10.4288 4.36208 9.74289L4.83188 9.59161C5.35041 9.42465 5.85128 8.99403 5.89438 8.45099L5.99899 7.13274C6.1688 4.993 8.12132 3.76518 10.175 4.38951L10.8396 4.59156C11.4803 4.84156 11.9822 4.62866 12.3318 4.24781L13.0506 3.33085Z"></path>
    <path fill="url(#paint7_radial_18_14692)" d="M13.0506 3.33085C14.5818 1.60723 16.6637 1.88156 17.9959 3.33085L18.8083 4.27146C19.0896 4.57751 19.4967 4.73622 19.9109 4.70134L21.3553 4.27146C23.324 3.84942 25.1131 5.31817 25.1131 7.59942V8.45879C25.1548 8.92792 25.5646 9.24593 25.9878 9.45261L27.2928 9.99786C29.1804 10.9198 29.6521 13.1072 28.2771 14.9432L27.8865 15.4588C27.5361 15.9325 27.6081 16.5542 27.9568 17.0291L28.3474 17.576C29.7693 19.326 28.9676 21.7269 26.9592 22.5657L25.8358 23.0349C25.4127 23.2116 25.2469 23.515 25.1678 23.9666L25.0896 25.4354C24.8162 27.451 23.026 28.3614 21.5896 28.158L19.8787 27.701C19.4678 27.6428 18.9568 27.7791 18.6834 28.2088L18.0662 29.0526C16.5349 30.7791 14.4682 30.492 13.4256 29.4822L12.287 28.1033C11.9889 27.8146 11.6131 27.5682 11.1632 27.7379L9.4412 28.2088C8.01952 28.4101 6.34548 27.3172 6.07754 25.9066L5.8787 23.8651C5.79799 23.4401 5.51778 23.08 5.12576 22.8973L3.91777 22.4822C2.10124 21.6357 1.49282 19.5864 2.53583 17.8751L3.21668 16.9335C3.49015 16.4848 3.47715 15.9179 3.18339 15.4822L2.67558 14.7635C1.23811 12.7166 2.23197 10.4288 4.36208 9.74289L4.83188 9.59161C5.35041 9.42465 5.85128 8.99403 5.89438 8.45099L5.99899 7.13274C6.1688 4.993 8.12132 3.76518 10.175 4.38951L10.8396 4.59156C11.4803 4.84156 11.9822 4.62866 12.3318 4.24781L13.0506 3.33085Z"></path>
    <path fill="url(#paint8_radial_18_14692)" d="M13.0506 3.33085C14.5818 1.60723 16.6637 1.88156 17.9959 3.33085L18.8083 4.27146C19.0896 4.57751 19.4967 4.73622 19.9109 4.70134L21.3553 4.27146C23.324 3.84942 25.1131 5.31817 25.1131 7.59942V8.45879C25.1548 8.92792 25.5646 9.24593 25.9878 9.45261L27.2928 9.99786C29.1804 10.9198 29.6521 13.1072 28.2771 14.9432L27.8865 15.4588C27.5361 15.9325 27.6081 16.5542 27.9568 17.0291L28.3474 17.576C29.7693 19.326 28.9676 21.7269 26.9592 22.5657L25.8358 23.0349C25.4127 23.2116 25.2469 23.515 25.1678 23.9666L25.0896 25.4354C24.8162 27.451 23.026 28.3614 21.5896 28.158L19.8787 27.701C19.4678 27.6428 18.9568 27.7791 18.6834 28.2088L18.0662 29.0526C16.5349 30.7791 14.4682 30.492 13.4256 29.4822L12.287 28.1033C11.9889 27.8146 11.6131 27.5682 11.1632 27.7379L9.4412 28.2088C8.01952 28.4101 6.34548 27.3172 6.07754 25.9066L5.8787 23.8651C5.79799 23.4401 5.51778 23.08 5.12576 22.8973L3.91777 22.4822C2.10124 21.6357 1.49282 19.5864 2.53583 17.8751L3.21668 16.9335C3.49015 16.4848 3.47715 15.9179 3.18339 15.4822L2.67558 14.7635C1.23811 12.7166 2.23197 10.4288 4.36208 9.74289L4.83188 9.59161C5.35041 9.42465 5.85128 8.99403 5.89438 8.45099L5.99899 7.13274C6.1688 4.993 8.12132 3.76518 10.175 4.38951L10.8396 4.59156C11.4803 4.84156 11.9822 4.62866 12.3318 4.24781L13.0506 3.33085Z"></path>
    <path fill="url(#paint9_radial_18_14692)" d="M13.0506 3.33085C14.5818 1.60723 16.6637 1.88156 17.9959 3.33085L18.8083 4.27146C19.0896 4.57751 19.4967 4.73622 19.9109 4.70134L21.3553 4.27146C23.324 3.84942 25.1131 5.31817 25.1131 7.59942V8.45879C25.1548 8.92792 25.5646 9.24593 25.9878 9.45261L27.2928 9.99786C29.1804 10.9198 29.6521 13.1072 28.2771 14.9432L27.8865 15.4588C27.5361 15.9325 27.6081 16.5542 27.9568 17.0291L28.3474 17.576C29.7693 19.326 28.9676 21.7269 26.9592 22.5657L25.8358 23.0349C25.4127 23.2116 25.2469 23.515 25.1678 23.9666L25.0896 25.4354C24.8162 27.451 23.026 28.3614 21.5896 28.158L19.8787 27.701C19.4678 27.6428 18.9568 27.7791 18.6834 28.2088L18.0662 29.0526C16.5349 30.7791 14.4682 30.492 13.4256 29.4822L12.287 28.1033C11.9889 27.8146 11.6131 27.5682 11.1632 27.7379L9.4412 28.2088C8.01952 28.4101 6.34548 27.3172 6.07754 25.9066L5.8787 23.8651C5.79799 23.4401 5.51778 23.08 5.12576 22.8973L3.91777 22.4822C2.10124 21.6357 1.49282 19.5864 2.53583 17.8751L3.21668 16.9335C3.49015 16.4848 3.47715 15.9179 3.18339 15.4822L2.67558 14.7635C1.23811 12.7166 2.23197 10.4288 4.36208 9.74289L4.83188 9.59161C5.35041 9.42465 5.85128 8.99403 5.89438 8.45099L5.99899 7.13274C6.1688 4.993 8.12132 3.76518 10.175 4.38951L10.8396 4.59156C11.4803 4.84156 11.9822 4.62866 12.3318 4.24781L13.0506 3.33085Z"></path>
  </g>
  <g filter="url(#filter1_d_18_14692)">
    <path fill="url(#paint10_radial_18_14692)" d="M15.5344 26.9339C21.4676 26.9339 26.2773 22.1241 26.2773 16.191C26.2773 10.2578 21.4676 5.448 15.5344 5.448C9.60122 5.448 4.79144 10.2578 4.79144 16.191C4.79144 22.1241 9.60122 26.9339 15.5344 26.9339Z"></path>
  </g>
  <defs>
    <radialGradient id="paint1_radial_18_14692" cx="0" cy="0" r="1" gradientTransform="rotate(138.155 8.402 5.182)scale(3.77864 3.33393)" gradientUnits="userSpaceOnUse">
      <stop offset=".3" stop-color="#FFA13A"></stop>
      <stop offset="1" stop-color="#FFA13A" stop-opacity="0"></stop>
    </radialGradient>
    <radialGradient id="paint2_radial_18_14692" cx="0" cy="0" r="1" gradientTransform="matrix(2.26873 5.56226 -4.90764 2.00172 8.288 2.244)" gradientUnits="userSpaceOnUse">
      <stop offset=".3" stop-color="#FF942A"></stop>
      <stop offset="1" stop-color="#FF942A" stop-opacity="0"></stop>
    </radialGradient>
    <radialGradient id="paint3_radial_18_14692" cx="0" cy="0" r="1" gradientTransform="rotate(-164.745 12.736 2.29)scale(2.39513 3.31637)" gradientUnits="userSpaceOnUse">
      <stop offset=".3" stop-color="#FFA13D"></stop>
      <stop offset="1" stop-color="#FFA13D" stop-opacity="0"></stop>
    </radialGradient>
    <radialGradient id="paint4_radial_18_14692" cx="0" cy="0" r="1" gradientTransform="matrix(-3.8232 1.84862 -1.36534 -2.82372 29.252 11.336)" gradientUnits="userSpaceOnUse">
      <stop offset=".3" stop-color="#FFA13D"></stop>
      <stop offset="1" stop-color="#FFA13D" stop-opacity="0"></stop>
    </radialGradient>
    <radialGradient id="paint5_radial_18_14692" cx="0" cy="0" r="1" gradientTransform="matrix(-4.7055 -.5462 .3078 -2.65172 30.177 18.52)" gradientUnits="userSpaceOnUse">
      <stop offset=".3" stop-color="#FFA13D"></stop>
      <stop offset="1" stop-color="#FFA13D" stop-opacity="0"></stop>
    </radialGradient>
    <radialGradient id="paint6_radial_18_14692" cx="0" cy="0" r="1" gradientTransform="rotate(-43.964 42.724 -20.11)scale(4.29693 4.13959)" gradientUnits="userSpaceOnUse">
      <stop stop-color="#E0762A"></stop>
      <stop offset="1" stop-color="#E0762A" stop-opacity="0"></stop>
    </radialGradient>
    <radialGradient id="paint7_radial_18_14692" cx="0" cy="0" r="1" gradientTransform="matrix(-2.01665 -2.60483 2.50944 -1.9428 6.019 23.015)" gradientUnits="userSpaceOnUse">
      <stop stop-color="#E0762A"></stop>
      <stop offset="1" stop-color="#E0762A" stop-opacity="0"></stop>
    </radialGradient>
    <radialGradient id="paint8_radial_18_14692" cx="0" cy="0" r="1" gradientTransform="matrix(3.02497 1.42845 -1.7265 3.6561 1.523 11.882)" gradientUnits="userSpaceOnUse">
      <stop stop-color="#F0851D"></stop>
      <stop offset="1" stop-color="#F0851D" stop-opacity="0"></stop>
    </radialGradient>
    <radialGradient id="paint9_radial_18_14692" cx="0" cy="0" r="1" gradientTransform="rotate(-142.487 15.635 10.748)scale(3.90025 3.67954)" gradientUnits="userSpaceOnUse">
      <stop offset=".337" stop-color="#E3745B"></stop>
      <stop offset="1" stop-color="#E3745B" stop-opacity="0"></stop>
    </radialGradient>
    <radialGradient id="paint10_radial_18_14692" cx="0" cy="0" r="1" gradientTransform="rotate(117.739 7.806 11.516)scale(19.1699 23.673)" gradientUnits="userSpaceOnUse">
      <stop offset=".172" stop-color="#FFD13D"></stop>
      <stop offset="1" stop-color="#DCA21C"></stop>
      <stop offset="1" stop-color="#D89A29"></stop>
    </radialGradient>
    <filter id="filter0_i_18_14692" width="27.269" height="28.355" x="2" y="1.939" color-interpolation-filters="sRGB" filterUnits="userSpaceOnUse">
      <feFlood flood-opacity="0" result="BackgroundImageFix"></feFlood>
      <feBlend in="SourceGraphic" in2="BackgroundImageFix" result="shape"></feBlend>
      <feColorMatrix in="SourceAlpha" result="hardAlpha" values="0 0 0 0 0 0 0 0 0 0 0 0 0 0 0 0 0 0 127 0"></feColorMatrix>
      <feOffset dx=".2" dy="-.2"></feOffset>
      <feGaussianBlur stdDeviation=".375"></feGaussianBlur>
      <feComposite in2="hardAlpha" k2="-1" k3="1" operator="arithmetic"></feComposite>
      <feColorMatrix values="0 0 0 0 0.839216 0 0 0 0 0.45098 0 0 0 0 0.211765 0 0 0 1 0"></feColorMatrix>
      <feBlend in2="shape" result="effect1_innerShadow_18_14692"></feBlend>
    </filter>
    <filter id="filter1_d_18_14692" width="22.086" height="22.086" x="4.191" y="5.448" color-interpolation-filters="sRGB" filterUnits="userSpaceOnUse">
      <feFlood flood-opacity="0" result="BackgroundImageFix"></feFlood>
      <feColorMatrix in="SourceAlpha" result="hardAlpha" values="0 0 0 0 0 0 0 0 0 0 0 0 0 0 0 0 0 0 127 0"></feColorMatrix>
      <feOffset dx="-.3" dy=".3"></feOffset>
      <feGaussianBlur stdDeviation=".15"></feGaussianBlur>
      <feComposite in2="hardAlpha" operator="out"></feComposite>
      <feColorMatrix values="0 0 0 0 0.921569 0 0 0 0 0.47451 0 0 0 0 0.133333 0 0 0 1 0"></feColorMatrix>
      <feBlend in2="BackgroundImageFix" result="effect1_dropShadow_18_14692"></feBlend>
      <feBlend in="SourceGraphic" in2="effect1_dropShadow_18_14692" result="shape"></feBlend>
    </filter>
    <linearGradient id="paint0_linear_18_14692" x1="23.878" x2="8.528" y1="6.867" y2="26.451" gradientUnits="userSpaceOnUse">
      <stop stop-color="#FC8B23"></stop>
      <stop offset="1" stop-color="#E67639"></stop>
    </linearGradient>
  </defs>
</svg>
